<svg width="304" height="65" viewBox="0 0 304 65" fill="none" xmlns="http://www.w3.org/2000/svg">
<path d="M44.9947 24.2623C41.1795 20.3473 35.0805 18.3897 28.9725 18.3897C22.8646 18.3897 16.7656 20.3473 12.9504 24.2623C9.17098 28.1407 7.26336 34.3074 7.22754 40.5017V40.8877C7.26336 47.0819 9.17098 53.2579 12.9504 57.127C15.055 59.2867 17.8582 60.8491 20.9749 61.8232C23.4467 62.5952 26.1066 62.9812 28.7755 62.9996H28.9636C29.8413 62.9996 30.7279 62.9628 31.5966 62.8801C33.746 62.6779 35.8596 62.2276 37.83 61.5383C40.5973 60.5642 43.0692 59.0937 44.9768 57.1362C45.2186 56.888 45.4515 56.6307 45.6754 56.3642C46.3381 55.5922 46.9292 54.7375 47.4576 53.8368C52.4908 45.1887 51.6669 31.1183 44.9857 24.2531L44.9947 24.2623Z" fill="#4030FF"/>
<path d="M44.8871 57.2466C36.791 64.2037 25.8916 57.4304 25.8468 47.3119V2.33435C25.8558 1.0477 24.8348 0 23.572 0H2.27481C1.02098 0 0 1.0477 0 2.33435V37.9193C0.0447796 45.29 2.31063 52.6239 6.79755 57.2374C8.2305 58.7079 9.93212 59.9394 11.8129 60.9411C13.7026 61.9429 15.7714 62.7241 17.9387 63.2663C17.9566 63.2663 17.9745 63.2663 17.9925 63.2847C18.279 63.349 18.5567 63.4225 18.8433 63.4869C18.8612 63.4869 18.8701 63.4869 18.8791 63.4869C19.1746 63.5512 19.4791 63.6155 19.7747 63.6707L19.8822 63.689C20.1598 63.735 20.4285 63.7901 20.7061 63.8269C20.7419 63.8269 20.7688 63.8269 20.7957 63.8453C21.1002 63.8912 21.4136 63.9372 21.7181 63.9739C21.736 63.9739 21.745 63.9739 21.754 63.9739C22.0495 64.0107 22.345 64.0383 22.6406 64.075H22.7301C23.3391 64.1394 23.9482 64.1761 24.5661 64.2037C24.6109 64.2037 24.6646 64.2037 24.7184 64.2037C25.0139 64.2037 25.3184 64.2221 25.6229 64.2221H25.8558C29.4829 64.2221 33.1101 63.6431 36.3969 62.4759C39.6837 61.3179 42.6213 59.5718 44.8961 57.2466H44.8871Z" fill="#1CD7C8"/>
<path d="M70.7151 51.2125C76.1645 51.2125 79.9165 49.2918 79.9165 43.0831V34.4178C79.9165 28.2091 76.7898 26.2884 72.3678 26.2884C71.4745 26.2884 70.1791 26.467 69.0625 27.0477V21.911C69.0625 20.3477 68.2138 19.499 66.6951 19.499H65.2211C63.6578 19.499 62.8091 20.3477 62.8091 21.911V47.1925C62.8091 48.6665 63.3004 49.5598 64.6851 50.1852C66.5611 50.9892 68.5711 51.2125 70.7151 51.2125ZM71.1618 45.7632C70.7598 45.7632 70.0898 45.7632 69.5538 45.6292C69.1518 45.5398 69.0625 45.4058 69.0625 45.0931V32.5864C69.0625 32.2291 69.1518 32.1397 69.5538 32.0504C70.1345 31.9164 70.7598 31.9164 71.1618 31.9164C72.7698 31.9164 73.7078 32.6311 73.7078 34.4178V43.2171C73.7078 45.0038 72.7698 45.7632 71.1618 45.7632Z" fill="#181C32"/>
<path d="M92.9669 51.2125C94.5749 51.2125 95.7363 51.0785 97.4336 50.7658C98.595 50.5425 99.131 49.8725 99.131 48.8005V47.1478C99.131 45.9865 98.461 45.3611 97.2996 45.3611H92.9669C90.5996 45.3611 89.1702 44.5571 89.1702 42.2345V41.2518H97.121C98.997 41.2518 99.9796 40.3585 99.9796 38.5271V35.7131C99.9796 28.2091 96.3616 26.2884 91.4483 26.2884C86.4902 26.2884 82.9169 28.2091 82.9169 35.7131V41.7878C82.9169 48.6665 86.6689 51.2125 92.9669 51.2125ZM89.1256 34.4178C89.1256 32.4077 89.9742 31.6484 91.5823 31.6484C93.1456 31.6484 93.9943 32.4077 93.9943 34.4178V36.7851H89.1256V34.4178Z" fill="#181C32"/>
<path d="M110.976 51.2125C116.426 51.2125 120.178 49.2918 120.178 43.0831V34.4178C120.178 28.2091 117.051 26.2884 112.629 26.2884C111.736 26.2884 110.44 26.467 109.324 27.0477V21.911C109.324 20.3477 108.475 19.499 106.956 19.499H105.482C103.919 19.499 103.07 20.3477 103.07 21.911V47.1925C103.07 48.6665 103.562 49.5598 104.946 50.1852C106.822 50.9892 108.832 51.2125 110.976 51.2125ZM111.423 45.7632C111.021 45.7632 110.351 45.7632 109.815 45.6292C109.413 45.5398 109.324 45.4058 109.324 45.0931V32.5864C109.324 32.2291 109.413 32.1397 109.815 32.0504C110.396 31.9164 111.021 31.9164 111.423 31.9164C113.031 31.9164 113.969 32.6311 113.969 34.4178V43.2171C113.969 45.0038 113.031 45.7632 111.423 45.7632Z" fill="#181C32"/>
<path d="M132.198 51.2125C134.118 51.2125 136.575 50.9892 138.496 50.1852C139.97 49.5598 140.372 48.6218 140.372 47.1478V35.3558C140.372 27.6284 135.548 26.2884 130.322 26.2884C129.071 26.2884 127.865 26.3777 126.212 26.735C125.006 26.9584 124.47 27.6284 124.47 28.7004V30.3084C124.47 31.5144 125.14 32.1397 126.302 32.1397H130.322C132.734 32.1397 134.163 32.8991 134.163 35.3558V36.0258C133.091 35.8024 131.84 35.6238 130.277 35.6238C126.391 35.6238 123.13 37.7678 123.13 42.7258V43.5745C123.13 49.2918 127.106 51.2125 132.198 51.2125ZM131.84 45.9865C130.277 45.9865 129.339 45.2271 129.339 43.4405V42.7258C129.339 40.9838 130.232 40.1798 131.84 40.1798C132.332 40.1798 132.912 40.1798 133.493 40.3138C134.029 40.3585 134.163 40.4925 134.163 40.8051V45.3611C134.163 45.7185 133.984 45.8078 133.404 45.8525C132.957 45.9418 132.332 45.9865 131.84 45.9865Z" fill="#181C32"/>
<path d="M149.848 51.2125C155.252 51.2125 158.29 48.8005 158.29 44.0658V43.6191C158.29 40.2245 156.414 38.4824 153.242 36.7851L151.411 35.7578C150.16 35.0878 149.669 34.5071 149.669 33.7478V33.5244C149.669 32.6311 150.205 32.0504 151.992 32.0504H156.101C157.263 32.0504 157.933 31.5144 157.933 30.3531V28.7004C157.933 27.6284 157.397 27.003 156.235 26.735C154.582 26.3777 153.242 26.2884 151.858 26.2884C146.453 26.2884 143.416 28.7004 143.416 33.4351V33.6584C143.416 37.0084 145.292 38.8398 148.463 40.5818L150.294 41.6091C151.545 42.2791 152.036 42.8598 152.036 43.5745V43.9765C152.036 44.8698 151.5 45.4505 149.714 45.4505H145.56C144.354 45.4505 143.728 46.0758 143.728 47.2372V48.8005C143.728 49.9172 144.264 50.4978 145.426 50.7658C147.034 51.1232 148.418 51.2125 149.848 51.2125Z" fill="#181C32"/>
<path d="M165.276 24.725C166.795 24.725 167.644 23.8317 167.644 22.313V21.2857C167.644 19.767 166.795 18.9183 165.276 18.9183H163.758C162.239 18.9183 161.39 19.767 161.39 21.2857V22.313C161.39 23.8317 162.239 24.725 163.758 24.725H165.276ZM165.276 50.8998C166.795 50.8998 167.644 50.0512 167.644 48.5325V29.0131C167.644 27.4497 166.795 26.601 165.276 26.601H163.758C162.239 26.601 161.39 27.4497 161.39 29.0131V48.5325C161.39 50.0512 162.239 50.8998 163.758 50.8998H165.276Z" fill="#181C32"/>
<path d="M174.742 50.8998C176.261 50.8998 177.109 50.0512 177.109 48.4878V32.5417C177.109 32.2291 177.199 32.0951 177.601 32.0504C178.137 31.9164 178.762 31.9164 179.209 31.9164C180.817 31.9164 181.755 32.4971 181.755 34.3284V48.4878C181.755 50.0512 182.559 50.8998 184.077 50.8998H185.596C187.115 50.8998 187.963 50.0512 187.963 48.4878V34.3284C187.963 28.1197 184.524 26.2884 179.075 26.2884C176.886 26.2884 174.563 26.735 172.732 27.405C171.347 27.9411 170.856 28.8344 170.856 30.3084V48.4878C170.856 50.0512 171.705 50.8998 173.268 50.8998H174.742Z" fill="#181C32"/>
<path d="M200.927 50.8998C202.803 50.8998 203.875 50.0065 204.187 48.1752L207.671 29.6384C207.716 29.3257 207.761 29.1024 207.761 28.8344C207.761 27.271 206.733 26.601 205.393 26.601H203.875C202.356 26.601 201.552 27.4497 201.373 29.0131L199.006 45.5398C198.961 45.8078 198.917 45.8972 198.783 45.8972H198.693C198.559 45.8972 198.47 45.8078 198.425 45.5398L196.147 29.0131C195.924 27.4497 195.12 26.601 193.601 26.601H192.082C190.742 26.601 189.715 27.271 189.715 28.8344C189.715 29.1024 189.76 29.3257 189.804 29.6384L193.288 48.1752C193.601 50.0065 194.673 50.8998 196.504 50.8998H200.927Z" fill="#181C32"/>
<path d="M219.291 51.2125C220.899 51.2125 222.06 51.0785 223.757 50.7658C224.919 50.5425 225.455 49.8725 225.455 48.8005V47.1478C225.455 45.9865 224.785 45.3611 223.623 45.3611H219.291C216.923 45.3611 215.494 44.5571 215.494 42.2345V41.2518H223.445C225.321 41.2518 226.303 40.3585 226.303 38.5271V35.7131C226.303 28.2091 222.685 26.2884 217.772 26.2884C212.814 26.2884 209.241 28.2091 209.241 35.7131V41.7878C209.241 48.6665 212.993 51.2125 219.291 51.2125ZM215.449 34.4178C215.449 32.4077 216.298 31.6484 217.906 31.6484C219.469 31.6484 220.318 32.4077 220.318 34.4178V36.7851H215.449V34.4178Z" fill="#181C32"/>
<path d="M235.692 51.2125C241.097 51.2125 244.134 48.8005 244.134 44.0658V43.6191C244.134 40.2245 242.258 38.4824 239.087 36.7851L237.255 35.7578C236.005 35.0878 235.513 34.5071 235.513 33.7478V33.5244C235.513 32.6311 236.049 32.0504 237.836 32.0504H241.945C243.107 32.0504 243.777 31.5144 243.777 30.3531V28.7004C243.777 27.6284 243.241 27.003 242.079 26.735C240.427 26.3777 239.087 26.2884 237.702 26.2884C232.297 26.2884 229.26 28.7004 229.26 33.4351V33.6584C229.26 37.0084 231.136 38.8398 234.307 40.5818L236.139 41.6091C237.389 42.2791 237.881 42.8598 237.881 43.5745V43.9765C237.881 44.8698 237.345 45.4505 235.558 45.4505H231.404C230.198 45.4505 229.573 46.0758 229.573 47.2372V48.8005C229.573 49.9172 230.109 50.4978 231.27 50.7658C232.878 51.1232 234.263 51.2125 235.692 51.2125Z" fill="#181C32"/>
<path d="M254.694 51.2125C256.481 51.2125 257.597 50.6765 257.597 49.1132V47.6392C257.597 46.3438 257.195 45.9865 256.079 45.8078L255.811 45.7632C254.158 45.4951 253.488 44.9145 253.488 43.0831V32.1844H255.811C256.972 32.1844 257.597 31.6037 257.597 30.3977V28.4324C257.597 27.1817 256.972 26.601 255.811 26.601H253.488V25.261C253.488 23.6977 252.595 22.849 251.076 22.849H249.647C248.128 22.849 247.235 23.6977 247.235 25.261V43.0831C247.235 49.5598 250.183 51.2125 254.694 51.2125Z" fill="#181C32"/>
<path d="M268.554 51.2125C270.475 51.2125 272.931 50.9892 274.852 50.1852C276.326 49.5598 276.728 48.6218 276.728 47.1478V35.3558C276.728 27.6284 271.904 26.2884 266.678 26.2884C265.427 26.2884 264.221 26.3777 262.569 26.735C261.363 26.9584 260.827 27.6284 260.827 28.7004V30.3084C260.827 31.5144 261.497 32.1397 262.658 32.1397H266.678C269.09 32.1397 270.519 32.8991 270.519 35.3558V36.0258C269.447 35.8024 268.197 35.6238 266.633 35.6238C262.747 35.6238 259.487 37.7678 259.487 42.7258V43.5745C259.487 49.2918 263.462 51.2125 268.554 51.2125ZM268.197 45.9865C266.633 45.9865 265.695 45.2271 265.695 43.4405V42.7258C265.695 40.9838 266.589 40.1798 268.197 40.1798C268.688 40.1798 269.269 40.1798 269.849 40.3138C270.385 40.3585 270.519 40.4925 270.519 40.8051V45.3611C270.519 45.7185 270.341 45.8078 269.76 45.8525C269.313 45.9418 268.688 45.9865 268.197 45.9865Z" fill="#181C32"/>
<path d="M286.204 51.2125C291.609 51.2125 294.646 48.8005 294.646 44.0658V43.6191C294.646 40.2245 292.77 38.4824 289.599 36.7851L287.767 35.7578C286.517 35.0878 286.025 34.5071 286.025 33.7478V33.5244C286.025 32.6311 286.561 32.0504 288.348 32.0504H292.457C293.619 32.0504 294.289 31.5144 294.289 30.3531V28.7004C294.289 27.6284 293.753 27.003 292.591 26.735C290.939 26.3777 289.599 26.2884 288.214 26.2884C282.809 26.2884 279.772 28.7004 279.772 33.4351V33.6584C279.772 37.0084 281.648 38.8398 284.819 40.5818L286.651 41.6091C287.901 42.2791 288.393 42.8598 288.393 43.5745V43.9765C288.393 44.8698 287.857 45.4505 286.07 45.4505H281.916C280.71 45.4505 280.085 46.0758 280.085 47.2372V48.8005C280.085 49.9172 280.621 50.4978 281.782 50.7658C283.39 51.1232 284.775 51.2125 286.204 51.2125Z" fill="#181C32"/>
<path d="M301.633 24.725C303.151 24.725 304 23.8317 304 22.313V21.2857C304 19.767 303.151 18.9183 301.633 18.9183H300.114C298.595 18.9183 297.747 19.767 297.747 21.2857V22.313C297.747 23.8317 298.595 24.725 300.114 24.725H301.633ZM301.633 50.8998C303.151 50.8998 304 50.0512 304 48.5325V29.0131C304 27.4497 303.151 26.601 301.633 26.601H300.114C298.595 26.601 297.747 27.4497 297.747 29.0131V48.5325C297.747 50.0512 298.595 50.8998 300.114 50.8998H301.633Z" fill="#181C32"/>
</svg>
